<svg xmlns="http://www.w3.org/2000/svg" viewBox="0 0 383.24 383.13"><defs><style>.cls-1{fill:#2d9045;}</style></defs><g id="Layer_2" data-name="Layer 2"><g id="Layer_1-2" data-name="Layer 1"><path class="cls-1" d="M383.24,226.06c-.82,1.92-1.47,3.93-2.47,5.75-4.24,7.7-10.73,11.92-19.61,12.18-2.48.08-5,0-7.59,0-1.11,7.13-2,14.13-3.33,21-11.34,57.21-61.78,106.27-119.43,115.89a167.82,167.82,0,0,1-27.14,2.18c-15.31,0-30.74.24-45.92-1.45-27.57-3.08-51.79-14.79-73-32.47-28.43-23.68-46.4-53.64-53-90.2-.86-4.77-1.21-9.63-1.87-15-2.54,0-5.1,0-7.65,0a22.44,22.44,0,0,1,0-44.87c2.61,0,5.22,0,7.79,0,.62-5.9.7-11.66,1.89-17.18,4.34-20.13,15.46-35.27,33.84-45,19.33-10.24,39.74-17.81,60.46-24.5,19.76-6.37,39.76-12,59.62-18.08a14.79,14.79,0,0,0,5.65-3.21c5.35-5,10.46-10.33,16.45-16.3a52.2,52.2,0,0,1-4.8-3.79c-4.4-4.38-4.38-8.16,0-12.57Q225.33,36.24,247.58,14c2.73-2.73,5.22-5.81,8.3-8.08,3.23-2.39,7-4,10.58-5.95h9c.17.17.33.44.54.49,17.21,3.78,24.13,26.06,9.22,39.72-9.84,9-18.95,18.79-28.39,28.23-7.41,7.41-14.79,14.84-22.24,22.21-4,3.9-7.83,3.91-11.77.11-1.53-1.47-2.85-3.14-4.5-5-5.71,5.73-11.13,11-16.38,16.52a12,12,0,0,0-2.76,4.68c-4.79,16-9.45,32-14.13,47.94-.36,1.23-.64,2.47-.73,2.86,7.55-1.2,14.95-3.13,22.42-3.41,14.7-.54,29.43-.16,44.14-.16,2.87,0,5.75.1,8.61,0,4.08-.2,6.89-2.63,8-6.65,1-3.65-.17-6.3-3.92-8.76-.42-.28-.87-.5-1.27-.79a7.14,7.14,0,0,1-3-8.53,7,7,0,0,1,7-5.16c2.61,0,5.23,0,7.85,0,19,.06,34.94,11.15,41.86,28.91a7.76,7.76,0,0,0,3.84,3.86c14.19,5.89,23.47,16.07,27.44,30.93.94,3.55,1.28,7.26,1.93,11.16,3.82,0,7.67-.06,11.52,0,9.36.16,16.07,4.58,20.29,12.86.83,1.63,1.44,3.38,2.15,5.08Zm-94.33,18.13v4.19c0,16.09,0,32.18,0,48.28A22.43,22.43,0,0,1,244,296.6c-.07-14,0-28,0-41.92,0-1,0-2,0-3-.32-4.46-3.65-7.76-7.65-7.64a7.66,7.66,0,0,0-7.26,7.63c-.17,4.86,0,9.73-.08,14.59a22.82,22.82,0,0,1-.44,4.82,22.52,22.52,0,0,1-24.94,17.74c-11.14-1.32-19.44-11.05-19.48-22.85,0-7.21,0-14.41,0-22h-4.38c-9.73,0-19.46.05-29.19,0A7.23,7.23,0,0,1,143,236.5c0-4.29,3.09-7.35,7.66-7.41,5.62-.08,11.23,0,16.84,0h16.41v-15H24.64c-1,0-2.22-.3-2.95.16-2.11,1.32-4.79,2.55-5.87,4.56C13,223.9,17.26,229,24,229.05c19.34,0,38.68,0,58,0,5.28,0,8.48,2.76,8.57,7.28.1,4.71-3.15,7.64-8.57,7.65-10.85,0-21.7,0-32.56,0-1.29,0-2.59.11-4.43.19.9,5.92,1.43,11.38,2.57,16.71C54.9,295.23,73.35,322.4,101.46,343,121,357.4,143,366.24,167.37,367.61c14.3.8,28.67.7,43,.47a94.18,94.18,0,0,0,20.36-2.41c52.37-12.62,86.48-45,102.88-96.15a83.63,83.63,0,0,0,4.14-25.33ZM170,199.12H189.3c7.47,0,9.78,2.32,9.78,9.82q0,27.87,0,55.75c0,3.32.74,6.21,3.7,8.06,5.14,3.22,11.11-.51,11.3-7.1.17-6.1-.51-12.32.45-18.29,1.91-11.88,12.83-19.52,24.84-18.23,11.1,1.2,19.58,11,19.61,22.73,0,14.34,0,28.68,0,43,0,5.33,3.06,9,7.44,9S274,300.28,274,295q0-43.77,0-87.55c0-5.65,1.51-7.6,7.17-9.12,11.45-3.08,19.14-10.29,21.82-21.81,2.78-12-.52-22.53-10-30.6-2.78-2.36-6.35-3.8-10.24-6,.11,1.89.13,2.5.19,3.11a24.16,24.16,0,0,1-25.27,26.35c-16.57-.62-33.17-.18-49.76-.14C189.07,169.21,174.83,180.37,170,199.12ZM153.22,120.4l-.29-.89c-10.83,3.59-21.71,7-32.46,10.8-17.13,6.05-34.2,12.25-50.06,21.31-12.53,7.16-20.11,18-23.32,31.88-1.15,5-1.32,10.19-1.91,15.14,5.24,1.19,8.72.59,11.28-3.74,1.4-2.37,3.93-4.16,6.19-5.89q26.84-20.62,53.77-41.1C128.63,138.66,141,129.57,153.22,120.4ZM289.05,228.92c.9.07,1.39.14,1.88.14h68.41a13.9,13.9,0,0,0,2.24-.11,7.43,7.43,0,0,0-.07-14.78,23.54,23.54,0,0,0-3.36-.1h-69.1ZM155,139l-.7-.7L74.85,198.17l.44,1c10.54,0,21.09.11,31.63-.11a7.06,7.06,0,0,0,4.81-2.42c7.58-9.73,15-19.61,22.36-29.48C141.09,157.77,148,148.39,155,139Zm73.69-63.95c16-15.91,31.71-31.54,47.35-47.29,3.34-3.36,3.13-7.63,0-10.64s-7.1-3-10.36.23Q242.18,40.71,218.86,64.2c-.16.16-.2.43-.16.35ZM174,140.57l-1-.39L129,199.12c8.08,0,15.3.09,22.51-.1.93,0,2.25-1.3,2.66-2.29,2.29-5.51,4.52-11.06,6.47-16.69C165.17,166.91,169.54,153.73,174,140.57ZM308,198.9h25.66c0-10.72-6.75-22.08-14.87-25A47.17,47.17,0,0,1,308,198.9Z"/><path class="cls-1" d="M116.76,229.07a7.47,7.47,0,1,1-7.47,7.55A7.37,7.37,0,0,1,116.76,229.07Z"/></g></g></svg>