<svg xmlns="http://www.w3.org/2000/svg" viewBox="0 0 383.05 383.28"><defs><style>.cls-1{fill:#2d9045;}</style></defs><g id="Layer_2" data-name="Layer 2"><g id="Layer_1-2" data-name="Layer 1"><path class="cls-1" d="M0,178.93c1-6.89,1.78-13.8,3-20.65A189.44,189.44,0,0,1,41.63,72.34c2.81-3.55,5.76-4.28,8.63-2.17s3.08,5.64.27,9.19C33,101.51,20.9,126.35,15.37,154,3.79,212.08,17,264.13,55.29,309.29c27,31.91,61.64,52,102.76,59.42,56.3,10.23,106.9-3.31,150.67-40.23,32.18-27.15,52.46-61.88,60-103.29,10.22-56.3-3.32-106.92-40.25-150.65C300.2,41.1,264,20.53,220.74,13.79,165.42,5.16,116.09,19.42,73.27,55.67c-1.43,1.2-2.79,2.5-4.23,3.69-3,2.51-6,2.52-8.32.09s-2.24-6.06.88-8.5c9.7-7.6,19.15-15.63,29.47-22.3a176.36,176.36,0,0,1,73.82-26.8C217.9-5,266.2,7.22,308.66,39.94,347,69.5,371.87,108.33,379.78,156.1c13,78.61-12.88,142.85-76.42,191.14-26.95,20.47-58.06,31.36-91.66,35.14-2.21.25-4.4.6-6.6.9H178.15c-4.42-.58-8.85-1.1-13.26-1.74-31.6-4.64-60.55-16-86.22-35.07C37.81,316.11,12.43,275.89,3,225.76,1.75,218.93,1,212,0,205.13Z"/><path class="cls-1" d="M165.47,54.33c0-6.33.1-12.81,0-19.28-.11-6.09,2.09-10.8,7.85-13.18s10.61-.62,14.93,3.66q14,13.81,28.17,27.39a9.76,9.76,0,0,0,4.39,2.49C278.09,68,321,113.8,329.36,172c5.52,38.39-4.05,73.09-27.09,104.19-1.83,2.47-3.23,5.27-4.94,7.85a120.67,120.67,0,0,1-7.42,10.71c-6.21,7.47-12.78,14.66-19.06,22.07a75.59,75.59,0,0,1-21.68,17.54c-3.53,1.92-6.8,1.16-8.42-1.83-1.53-2.82-.63-6.15,2.67-7.89,10-5.26,17.39-13.18,24.29-21.82,4.12-5.16,8.59-10.06,13.11-14.87,13.49-14.4,12.81-34.47-1.48-48-5.87-5.56-11.46-11.45-16.86-17.47C242.39,200,217.92,192.5,188.9,200.64c-11.24,3.16-22.39,6.72-33.48,10.39-17.54,5.81-26.35,22.29-21.8,40.29,2.82,11.18-1.47,20.77-11.79,24.14-18,5.9-25.33,27.37-10,44.12,8.84,9.64,20.13,12.95,32.68,9.36A72.11,72.11,0,0,1,188.59,330a63.79,63.79,0,0,0,31,2.67,5.89,5.89,0,0,1,7,4.59c.62,3.05-1.43,5.9-5.11,6.58a68.6,68.6,0,0,1-33.23-2.15c-9.2-2.84-18.49-5.32-28.24-4.12A101.41,101.41,0,0,0,147.59,340c-25.94,6.61-50.66-9.18-55-35.46-.62-3.72.29-7.67.16-11.5a8.9,8.9,0,0,0-1.5-4.89c-5.36-7-10.93-13.89-16.48-20.76A6.29,6.29,0,0,0,72,265.1c-8.84-2.34-14.69-8.18-18.77-16-6.29-12-7.8-25.09-7.79-38.41,0-27.33,6.66-53.25,17-78.32,7.81-19,17.79-36.77,31.74-52.07,6.52-7.14,13.77-13.38,22.58-17.58,7.81-3.73,15.85-5,24.24-2a3.76,3.76,0,0,0,2.13.32C150.5,58.87,157.85,56.63,165.47,54.33Zm136,202.05c14.3-24.25,20.22-50.15,17.37-78-3.07.17-5.79.43-8.51.44q-65.29,0-130.59,0c-9.18,0-14.25-5.19-14.25-14.46q0-46.59,0-93.17V66.35L153.2,69.61c6,12.63,6.35,20.51.46,29.42-16.91,25.6-28.31,53.64-37.3,82.76-5.77,18.7-10.43,37.66-11.77,57.28-.82,12-6.36,20.74-18.16,25.66l11.89,14.6c4.88-6.61,10.56-11.08,17.69-13.68,6.73-2.46,8.1-5.23,6.35-12.34-5.63-22.9,6.3-45.13,28.64-52.72,12.35-4.21,24.75-8.44,37.39-11.62,32-8.05,59.24.54,81.59,24.78,5.33,5.77,10.54,11.66,16.24,17C293.76,237.9,299.62,245.8,301.47,256.38ZM315.23,167l.6-1.2-137.55-134-1.05.53a38.05,38.05,0,0,0-.46,4.22q0,63.26-.09,126.5c0,3.51,1.08,4.43,4.47,4.43q65.11-.15,130.24-.08C312.67,167.37,314,167.14,315.23,167ZM119.62,139.31c-1.81-.65-3.21-1.12-4.58-1.65a14.48,14.48,0,0,1-9-17.21A14.08,14.08,0,0,1,123,110.08c3.11.64,6.12,1.74,9,2.56,4.26-6.86,8.48-13.32,12.36-20,3.23-5.56,3-11.3-.85-16.49-3.7-5-8.93-6.67-14.91-5.36a36.15,36.15,0,0,0-8.38,3C112,77.94,105.54,84.23,99.77,91.15,82,112.5,71,137.29,63.65,163.82c-5.91,21.41-9.17,43.15-5.24,65.36,1.51,8.54,4,16.87,11.43,22.41a14.46,14.46,0,0,0,23-10.25c.83-7.67,1.69-15.32,2.49-22.54-4.38-2.49-9.28-4.36-12.95-7.61-4.2-3.72-4.79-9.14-2.77-14.52,3-8.12,9.66-10.28,22.62-7.31,1.09-3.72,2.18-7.47,3.31-11.37-4.14-1.49-8.06-2.71-11.82-4.3a14.37,14.37,0,0,1,9.75-27c3.8,1.12,7.53,2.48,11.55,3.82ZM309.73,144c-5-25.43-47.6-66.88-73.61-71.72ZM111.09,161.27c-3.63-1.25-7-2.64-10.4-3.45-1.17-.28-2.68.88-4,1.38.63,1.4.9,3.55,2,4.06a94.33,94.33,0,0,0,10.43,3.81Zm13.13-32.49,2.64-5.61c-2.35-.77-4.19-1.78-6.07-1.84a4.5,4.5,0,0,0-3.52,2.11c-.36.74.75,2.72,1.72,3.41C120.34,127.81,122.17,128.07,124.22,128.78Zm-24.89,72c-1.76-.65-3.12-1.24-4.54-1.65-2-.56-4.16-.46-4.42,1.9-.13,1.22,1.24,3,2.42,3.86s3.21,1.17,5.11,1.78C98.37,204.75,98.81,203,99.33,200.8Z"/><path class="cls-1" d="M167.63,266.87A41.9,41.9,0,1,1,209.21,309,41.88,41.88,0,0,1,167.63,266.87Zm41.6,30.55A30.44,30.44,0,0,0,240.07,267c.22-16.42-13.56-30.43-30-30.51-17.31-.09-31.05,13.14-31.18,30A30.4,30.4,0,0,0,209.23,297.42Z"/><path class="cls-1" d="M193,120.81c-1.2-1-3.4-2-4.07-3.62s-.54-4.59.54-5.75q10.32-11,21.32-21.41c2.21-2.1,5.15-1.66,7.39.6s2.24,5.41-.29,8c-6.61,6.76-13.35,13.4-20.06,20.06a6.47,6.47,0,0,1-1.85,1.22A25.11,25.11,0,0,1,193,120.81Z"/><path class="cls-1" d="M233.46,106.91c1.55,1.32,3.77,2.32,4.21,3.83.54,1.84.35,4.81-.83,6.09-6.6,7.1-13.53,13.91-20.49,20.67a5.32,5.32,0,0,1-8-.17c-2.22-2.37-2.24-5.39.32-8q9.91-10.13,20.09-20C229.83,108.27,231.51,107.87,233.46,106.91Z"/><path class="cls-1" d="M257.79,131.37c-1,1.93-1.51,3.57-2.57,4.65q-9.76,10-19.77,19.82c-2.75,2.69-5.9,2.68-8.27.31s-2.37-5.51.34-8.27c6.54-6.65,13-13.35,19.89-19.68,1.39-1.3,4.41-1.76,6.34-1.26C255.33,127.35,256.4,129.75,257.79,131.37Z"/></g></g></svg>