<svg xmlns="http://www.w3.org/2000/svg" viewBox="0 0 431.24 343.3"><defs><style>.cls-1{fill:#009c41;}</style></defs><g id="Layer_2" data-name="Layer 2"><g id="Layer_1-2" data-name="Layer 1"><path class="cls-1" d="M431.24,131.23c-2.28,8.58-8.09,14.31-14.87,19.62C394,168.42,371.75,186.27,349.5,204c-8.42,6.72-17.5,8.28-27.58,4.19a5.11,5.11,0,0,0-4.27.75c-4.75,3.72-9.09,8-13.93,11.54-3.48,2.58-4.27,5.38-3.8,9.58,3.19,28.68-12.22,56.49-38.47,68.19-9.13,4.08-19.09,6.39-28.79,9.1-40.61,11.36-81.18,22.88-121.94,33.71-34.41,9.14-70-11-80.75-44.79-2.4-7.55-.35-11.39,7.23-13.51L54.27,278c-2.28-8-5.06-15.68-6.56-23.56a96,96,0,0,1,7.39-59.93c3.34-7.15,8.78-12,16.53-13.72a5.88,5.88,0,0,0,4.79-4.44c3-8.73,7.74-16,17.12-18.81,9.64-2.85,18.48-1,25.49,6.44,7.18,7.61,9.07,16.71,5.17,26.48-3.18,8-5.09,16-3.83,24.6,1.77,12.06,7.87,21.4,17.7,28.42a10.57,10.57,0,0,0,1.86.77c-.44-4.38-1-8.37-1.23-12.37-1.41-21.8,3.42-42.08,15.31-60.48,7.53-11.66,22-15,33.55-8.1a25,25,0,0,1,8.74,33.81c-6.54,11.8-8.8,24.06-5.05,37.26,1.15,4.07,2.9,5,7.19,3.79,27.87-8,55.85-15.62,83.76-23.5a18.91,18.91,0,0,0,6.53-3.48c6-4.84,11.74-10,17.72-14.89,1.81-1.48,2.12-2.83,1.62-5-2.33-10.2.28-19.1,8.44-25.68q36.89-29.7,74.11-59c13.92-10.88,33.7-4.46,39.4,12.31.35,1,.81,2,1.22,3ZM283.48,231.9,48.35,297.18c1,1.92,1.76,3.42,2.62,4.82,12.31,20.13,35.18,28.64,59.28,22q66.84-18.51,133.66-37.08c7.79-2.16,15.09-5.29,21.28-10.6C278.58,264.81,284.41,250.21,283.48,231.9ZM127.77,257.59a3.83,3.83,0,0,0-.31-.73L125.2,255c-17-13.84-24.69-31.59-21.52-53.44.85-5.88,3.22-11.55,5-17.29,1.35-4.43-.51-8.94-4.46-10.52s-8.11-.07-10.11,4.25a108.07,108.07,0,0,0-4.37,11.35c-2.06,6.14-4.24,7.9-10.75,7.53-4.17-.23-7.1,1.27-8.76,5.07-9.91,22.68-9.89,45.38-.16,68.13,1.13,2.65,2.53,3,5.19,2.2,10.62-3.1,21.32-5.93,32-8.89C114.06,261.48,120.89,259.53,127.77,257.59Zm195-72.1c2.28,2.76,3.78,5.49,6.07,7.08,3.07,2.14,6.47,1.14,9.34-1.14q36.21-28.83,72.39-57.7c4.34-3.47,4.95-8.36,1.95-12.23s-8.23-4.37-12.68-.83q-36.09,28.63-72,57.47C325.86,179.74,324.81,182.5,322.81,185.49ZM176.73,244c-7.15-19.13-4.79-36.87,4.31-54,2.68-5,2-9.71-2-12.18-4.16-2.56-8.45-1.17-11.59,3.86a79.48,79.48,0,0,0-12,46c.27,7,1.83,14,2.87,21.48Z"/><path class="cls-1" d="M50.59,131.77a25.3,25.3,0,1,1-25.2-25.11A25.34,25.34,0,0,1,50.59,131.77Zm-25.42-8.23a8.32,8.32,0,0,0-8.3,8.3,8.63,8.63,0,0,0,8.6,8.55A8.48,8.48,0,0,0,33.72,132,8.24,8.24,0,0,0,25.17,123.54Z"/><path class="cls-1" d="M118.16,47.4A25.33,25.33,0,1,1,93,72.69,25.41,25.41,0,0,1,118.16,47.4Zm8.65,25.1a8.46,8.46,0,0,0-8.87-8.2,8.38,8.38,0,0,0-8,8.61,8.44,8.44,0,1,0,16.88-.41Z"/><path class="cls-1" d="M223.35,55.92c7.7-.15,11.61,6.39,8.68,12.44-1.88,3.9-4,7.7-5.62,11.71-4.13,10.41-5.43,21.05-2.29,32.05,1.52,5.33-.84,9.53-5.63,10.9s-8.92-1.12-10.47-6.48c-6-20.55-.74-39.24,9.79-57a3.55,3.55,0,0,1,1.1-1.26C220.68,57.29,222.5,56.37,223.35,55.92Z"/><path class="cls-1" d="M50.12,43.56A88.24,88.24,0,0,1,62,5.59C65,.27,69.73-1.36,74.19,1.17s5.41,7.34,2.39,12.76c-6.24,11.24-10.21,23-8.4,36.11.33,2.34,1.08,4.62,1.55,6.94,1,4.77-1.52,9.1-5.81,10.23-4.53,1.2-9-.87-10.24-5.64C52.1,55.67,51.27,49.57,50.12,43.56Z"/><path class="cls-1" d="M5.85,63.58C6.32,46.91,10.31,33.94,17.5,22c3-5,7.8-6.35,12.09-3.73S34.77,25.5,32,30.32C27.66,38.07,24,46.16,23.45,55.09A87,87,0,0,0,24.7,72.93c.84,5.48-.87,9.8-5.44,11.14-4.9,1.43-9.35-1-10.77-6.59C7.12,72.09,6.4,66.53,5.85,63.58Z"/><path class="cls-1" d="M179.13,72.85c7.37.05,11,6.48,8,12.65a143.48,143.48,0,0,0-6.7,14.88,46.15,46.15,0,0,0-1.1,28.47c1.58,5.56-.93,9.89-5.88,11.18-4.6,1.2-8.58-1.42-10.33-6.81-.17-.53-.35-1.06-.5-1.6-2.49-9.39-2.94-19-.31-28.24,2.47-8.66,6.24-17,9.74-25.32C173.38,74.8,176.13,72.77,179.13,72.85Z"/><path class="cls-1" d="M25.46,174.24A8.47,8.47,0,0,1,33.68,183a8.38,8.38,0,0,1-8.49,8,8.49,8.49,0,0,1-8.28-8.72A8.62,8.62,0,0,1,25.46,174.24Z"/><path class="cls-1" d="M8.23,224.79A8.31,8.31,0,0,1,0,216.4a8.59,8.59,0,0,1,8.36-8.35,8.56,8.56,0,0,1,8.42,8.7A8.33,8.33,0,0,1,8.23,224.79Z"/><path class="cls-1" d="M84.37,106.47A8.35,8.35,0,0,1,76.24,115a8.64,8.64,0,0,1-8.6-8.56,8.37,8.37,0,0,1,8.46-8.16A8.11,8.11,0,0,1,84.37,106.47Z"/><path class="cls-1" d="M109.88,140.34a8.42,8.42,0,0,1-8.3-8.34,8.31,8.31,0,1,1,16.62,0A8.39,8.39,0,0,1,109.88,140.34Z"/></g></g></svg>