<svg xmlns="http://www.w3.org/2000/svg" viewBox="0 0 372.11 383.4"><defs><style>.cls-1{fill:#2d9045;}</style></defs><g id="Layer_2" data-name="Layer 2"><g id="Layer_1-2" data-name="Layer 1"><path class="cls-1" d="M71.55,383.4C58,378,61.06,365.93,60.7,355H44c-17.14,0-30.79-9.08-37.41-24.85Q4,323.9,1.55,317.65c-5-12.63,2.59-24.1,16.14-24.27,6.84-.09,13.68,0,20.72,0,2.11-13.21,4.18-26.09,6.24-39,2.56-16.1,5.08-32.2,7.69-48.3.71-4.4,3.54-6.68,7-6s4.86,3.66,4.19,7.89q-6.69,41.85-13.32,83.7a9.68,9.68,0,0,0,0,1.36H322.17c-7.15-44.67-14.27-89.2-21.42-133.87-5.69,0-10.92-.16-16.14,0-4,.16-6.07,2.56-6.2,7-.14,4.61,0,9.23-.06,13.84-.08,4.4-2.21,6.83-5.75,6.76s-5.56-2.7-5.59-7c0-4.74-.08-9.48,0-14.22a17.84,17.84,0,0,1,17.84-17.86c4.47-.09,8.95,0,14,0-1.78-8.89-1.52-17.86-5.58-25.9-5.5-10.88-14.69-16.29-26.72-16.82-6.22-.28-12.47,0-18.71-.07-4.29,0-6.91-2.21-6.86-5.67s2.65-5.54,7-5.51c8,0,16.08-.67,23.91.44,20.25,2.89,33,17.09,36.15,38.13,4.17,27.69,8.8,55.31,13.22,83q6.1,38.16,12.19,76.32c.08.47.22.93.43,1.77,7.1,0,14.19-.11,21.28,0,9,.18,15.53,5.64,16.79,14.43a19.66,19.66,0,0,1-1.1,8.73,126,126,0,0,1-6.15,15.21c-7.25,14.9-19.18,22.81-35.87,23.16-5.6.11-11.21,0-17.46,0,0,3.24-.23,6.31,0,9.33.8,8.94-2.39,15.5-10.84,19.13Zm228.39-28.28c-1.28-.07-2.25-.17-3.22-.17-10.22,0-20.46.15-30.68-.15a7.56,7.56,0,0,1-5.33-3.08,5.69,5.69,0,0,1,.43-5.42,8.51,8.51,0,0,1,5.74-2.45c20.46-.17,40.91,0,61.37-.14,11.08-.08,19.82-4.81,25.11-14.7a143.24,143.24,0,0,0,7-16.47c1.37-3.6-.4-7-3.71-7.66a23.84,23.84,0,0,0-4.48-.15h-278q-28.07,0-56.13,0c-5.63,0-7.91,3.32-5.92,8.57,1.37,3.61,2.87,7.17,4.33,10.73,5.63,13.69,14.61,19.7,29.43,19.7H235.94a18.5,18.5,0,0,1,3.73.1,5.59,5.59,0,0,1-.09,11,21.05,21.05,0,0,1-3.73.08H72.19v10.5c0,6.48.26,6.74,6.73,6.74h214.4c1.13,0,2.5.38,3.31-.13,1.3-.8,3.05-2.13,3.16-3.36C300.17,364.27,299.94,359.8,299.94,355.12Z"/><path class="cls-1" d="M71.47,159.16l-2.94,17.78c-.22,1.36-.4,2.72-.71,4.05-.82,3.43-3.35,5.24-6.5,4.73s-5.13-3.37-4.6-7c.94-6.4,2-12.78,3-19.17q2.52-15.48,5.07-31a41.26,41.26,0,0,1,40.65-34.86q9.54-.06,19.08,0c4,0,6.4,2.25,6.31,5.74-.08,3.31-2.42,5.35-6.25,5.44-7.84.19-15.76-.25-23.51.7-12.65,1.56-22,10.68-24.76,23.23-1.31,6.06-2,12.26-3.1,18.86,3.65,0,7,0,10.32,0,11,.07,18.6,7.57,18.62,18.54q.06,21.71,0,43.41c0,3.06,1,5.81,4.06,6.29a8.81,8.81,0,0,0,6.19-1.9c1.13-.93,1.34-3.38,1.38-5.17.15-6.61,0-13.22.09-19.83.22-10.52,6.06-18.83,15.14-21.81,13.51-4.44,27.65,5.38,28.46,19.77.09,1.74,0,3.49.05,5.24.08,5.74,3.8,9.87,8.94,9.94s9.12-4.18,9.15-10.14c0-8.48,0-17,0-25.44,0-11.44,7.53-18.88,19.06-18.9q19.46,0,38.91,0c11.4,0,18.91,7.56,18.94,19.06,0,17.71,0,35.42,0,53.13,0,6.21,5.87,10.06,10.62,6.77a10.08,10.08,0,0,0,3.6-6.38c.56-4.42.13-9,.18-13.45s2.06-6.83,5.65-6.86,5.62,2.23,5.69,6.76.13,9.23,0,13.84c-.37,10.61-8,18.3-18.17,18.46-10.41.17-18.45-7.28-18.89-18.08-.36-8.59-.12-17.21-.13-25.81,0-9.23,0-18.46,0-27.69,0-6.3-2-8.3-8.29-8.31q-18.72-.06-37.42,0c-6.4,0-8.39,2.08-8.42,8.62,0,8.73.14,17.47-.12,26.19A20.09,20.09,0,0,1,169,213.41c-10.38,1-19.88-5.38-22.17-15.41-.82-3.59-.47-7.44-.92-11.14a10.22,10.22,0,0,0-9.62-9.3,10.58,10.58,0,0,0-10.56,7.85,18.3,18.3,0,0,0-.38,4.45c0,7,.12,14-.07,20.95-.24,8.67-6.7,15.91-14.7,16.84-9,1-16.82-4.06-19.07-12.61a24.9,24.9,0,0,1-.54-6.29c0-13.6,0-27.19,0-40.79,0-6.71-2-8.76-8.64-8.8C78.82,159.14,75.34,159.16,71.47,159.16Z"/><path class="cls-1" d="M122.08,48.16C119.56,42,115.32,35.89,120,28.88s11.69-5.39,18.46-5.42c1.83-4.79,3.58-9.53,5.45-14.22C148-1,158.33-3.15,165.89,5c4.37,4.71,8.1,10,12.23,14.94a4.33,4.33,0,0,0,2.72,1.33c21,1.39,34.71,12.07,41.49,31.9,3.21,9.41,6.55,18.77,9.78,28.18,5.57,16.27-4.24,30.32-21.51,31.06q-15.32.65-30.6,1.75c-18.65,1.34-35.27-8.3-43.18-25.36C136,87,135,86.49,133.13,86c-7-2-14.2-3.84-20.74-7-7.33-3.51-8.21-13.42-2.32-19.43C113.81,55.73,117.82,52.18,122.08,48.16Zm57.23,54.7c10.51-.67,21.72-1.21,32.89-2.18,7.77-.68,12-7.08,9.59-14.38-3.72-11.21-7.58-22.38-11.75-33.43-3.62-9.56-10.72-15.75-20.44-18.78-10.8-3.36-20-.7-25.65,7.51-5.24,7.58-10.32,15.28-15.31,23a19.29,19.29,0,0,0-.91,20.57C154.26,97.58,164.76,103.18,179.31,102.86ZM141.58,54.59c3.17-4.76,6.27-9.39,9.35-14a16.57,16.57,0,0,0,.82-1.55c-4.48-3.94-18-5.87-22.73-3.12C132.72,42.36,133.56,50.67,141.58,54.59Zm26.14-31c-3.8-4.16-7.62-8.33-12.09-13.2-2,5.46-3.75,10-5.06,13.43,5.78,7.28,11,4.94,16.18.7ZM135.64,64.75l-8-6.27-9.54,11,15.31,5.56C134.29,71.06,135,67.94,135.64,64.75Z"/><path class="cls-1" d="M175.45,77.84A6.41,6.41,0,0,1,168.83,84a6.08,6.08,0,0,1-6-6.59,6.26,6.26,0,0,1,6.29-6A6.6,6.6,0,0,1,175.45,77.84Z"/><path class="cls-1" d="M195.29,84.73a6.12,6.12,0,0,1-6.42-6.22,6.31,6.31,0,0,1,6.32-6.41,6.56,6.56,0,0,1,6.33,6.12A6.4,6.4,0,0,1,195.29,84.73Z"/><path class="cls-1" d="M184.31,60.94A6.38,6.38,0,0,1,178,54.52a6.65,6.65,0,0,1,6.64-6.22,6.37,6.37,0,0,1,6,6.35A6.07,6.07,0,0,1,184.31,60.94Z"/></g></g></svg>