<svg xmlns="http://www.w3.org/2000/svg" viewBox="0 0 383.35 321.67"><defs><style>.cls-1{fill:#2d9045;}</style></defs><g id="Layer_2" data-name="Layer 2"><g id="Layer_1-2" data-name="Layer 1"><path class="cls-1" d="M383.35,307.54a60.88,60.88,0,0,1-4.23,7.28,17.38,17.38,0,0,1-14,6.75c-9.35.16-18.71.09-28.07,0-4,0-6.6-2.27-6.74-5.54s2.53-5.86,6.74-5.91c9.1-.1,18.21,0,27.32-.07,4.33-.05,7.18-2.46,7.68-6.15a7,7,0,0,0-6.12-7.64,22.93,22.93,0,0,0-3-.08H126.47l-.35.72c4.23,2.9,8.72,5.48,12.6,8.77,4.39,3.74,9.14,4.53,14.72,4.51,50.77-.17,101.55-.1,152.32-.09a32.5,32.5,0,0,1,4.84.24,5.12,5.12,0,0,1,4.73,5.36c.09,3.07-1.57,4.94-4.43,5.64a16.87,16.87,0,0,1-4.09.25H8.53c-7.16,0-9.42-2.71-8.23-9.78a25.83,25.83,0,0,1,22.76-21.49c.48-.06,1-.15,1.79-.28V272.13c0-7.36-.05-14.72,0-22.08a4,4,0,0,0-2.23-4.13C10.21,238.57,4.21,227.45,4,213.11c-.09-6.61,0-13.22,0-19.83,0-6.76,1.66-8.42,8.32-8.46H16v-4.4Q16,129.71,16,79C16,69,19.24,65.74,29.1,65.73h5.09c1.38-6,1.23-6.34-3.88-9a21.87,21.87,0,0,1-9.69-29.12C24.59,19.69,29,12,33.45,4.37c3.45-5.88,10.86-5.81,14.31.11C52.14,12,56.47,19.6,60.39,27.38c5.75,11.41.65,24.86-11,30.06-.9.39-1.82.75-3,1.24v7.06c2.87,0,5.46,0,8,0,6.82.09,10.71,4,10.73,11.11,0,17.46,0,34.93,0,52.4v4.86c1.53.08,2.85.19,4.17.2q17.2,0,34.43,0c1.37,0,3.09-.34,4,.34,1.75,1.27,4.08,3.07,4.24,4.83s-1.73,4-3.27,5.53c-.86.83-2.82.69-4.29.69q-26.76.06-53.52,0H46.6c-.1,1.34-.25,2.41-.25,3.49,0,13.47-.05,26.95.1,40.42C46.73,214.29,65.09,237,89,242.43c5.59,1.27,6.77,2.73,6.77,8.44,0,13-.1,25.95.07,38.92a11.5,11.5,0,0,1-4.1,9.57c-2.76,2.33-5.71,4.43-8.6,6.58-1.55,1.16-3.16,2.23-5.55,3.91H124.3c-1.23-1-2-1.7-2.82-2.31-3.42-2.51-6.93-4.88-10.25-7.51s-4.87-6.24-4.8-10.78c.23-13,.07-25.95.09-38.92,0-5,1.39-6.69,6.19-7.83a55.8,55.8,0,0,0,43.16-53.78c.19-13.22.09-26.45.1-39.67,0-1-.11-1.93-.19-3.3H135.86a18.48,18.48,0,0,1-3.73-.13c-3-.66-4.91-2.42-4.83-5.71s1.87-5.34,5-5.4c9.09-.15,18.21-.25,27.29.13,5,.21,7.79,4.21,7.87,10.1.1,6.86,0,13.73,0,20.59v4.44A138.09,138.09,0,0,1,212,155.31c0-3.21,0-6.29,0-9.37.15-10.69,8-18.76,18.21-18.81,10.45,0,18.17,7.64,18.52,18.4.1,3.21-.78,7.28.84,9.35,1.46,1.86,5.74,1.5,8.76,2.16,52.62,11.31,93.52,53.73,102.56,106.51,1.18,6.86,1.77,13.81,2.67,21.1,10-.06,16.47,5.16,19.77,14.66Zm-31.05-23c-1.25-8.69-1.81-17.18-3.74-25.33C330,180.94,242.45,142,171.94,180.31c-3.16,1.72-4.46,3.61-4.61,7.43-1.14,29-14.59,50.14-41.22,62.34-8,3.66-8.12,3.42-8.12,12.23v22.21ZM27.79,77.16V184.54h7c0-13.37-.06-26.45,0-39.53,0-7.14,3.46-10.5,10.57-10.68,2.68-.07,5.37,0,8.12,0V77.16ZM56.22,289.07c5,2,9.43,3.33,13.34,5.55,5.36,3.05,5.19,3.35,10.21-.13.61-.42,1.19-.91,1.83-1.28,2.18-1.27,2.82-3.12,2.8-5.62-.13-10.59-.11-21.18,0-31.76,0-2.08-.67-2.93-2.61-3.75-5.58-2.37-11-5-16.46-7.76-2.55-1.29-9,1.63-9.06,4.49C56.17,262.49,56.22,276.18,56.22,289.07Zm-2.73-53.44c-4-6.22-8.44-12-11.53-18.42S37,203.47,34.58,196.36h-19c0,6.62-.22,13,.05,19.32C16.45,234.61,37.63,245.57,53.49,235.63ZM46.3,45.88c4.37-2.85,6.46-7.6,4.38-12.17-2.85-6.26-6.43-12.18-10.12-19-3.68,6.84-7.22,12.78-10.11,19-2.07,4.47-.12,9,4.3,12.25C38.81,40.56,42.27,40.54,46.3,45.88ZM12.65,310.11h4.7c11.44,0,22.9-.34,34.32.15,5.45.24,8.86-2.36,13.39-6.08-3.61-1-6.38-2.47-9.19-2.54-10.19-.28-20.4-.25-30.59-.06C19.81,301.69,15.68,304.4,12.65,310.11ZM44.71,290V250.89H36.38V290ZM237.41,154c0-3.15.14-6.12,0-9.07a7,7,0,0,0-6.56-6.5,6.72,6.72,0,0,0-7.09,5.81,87.89,87.89,0,0,0-.07,9.76Z"/><path class="cls-1" d="M101.37,181.29h40c6.85,0,8.49,1.65,8.38,8.31-.41,24-19.79,44.76-44.18,47.41-22.92,2.49-45.6-13.65-51.46-36.8a59.26,59.26,0,0,1-1.58-11.42c-.28-5.5,1.74-7.47,7.26-7.49C73.68,181.25,87.52,181.29,101.37,181.29Zm36.27,11.76h-73c.41,16.84,18.65,33,36.77,32.79S137.67,209.41,137.64,193.05Z"/></g></g></svg>