<svg xmlns="http://www.w3.org/2000/svg" viewBox="0 0 370.54 383.31"><defs><style>.cls-1{fill:#2d9045;}</style></defs><g id="Layer_2" data-name="Layer 2"><g id="Layer_1-2" data-name="Layer 1"><path class="cls-1" d="M180.75,383.31a11.83,11.83,0,0,0-1.5-.86c-8.59-3.33-13.3-10-13.33-19.22,0-17.59,0-35.17,0-52.76v-4.29a239.42,239.42,0,0,1-75.17-15.7c-.71,1.23-1.41,2.35-2,3.52-9.52,18.21-19,36.44-28.55,54.61-4.75,9-13.88,13-22.86,10.26-11.85-3.64-17.15-16.38-11.3-27.72q14.37-27.87,29.07-55.59c1.51-2.84,1.31-4.24-1.31-6.3-29-22.88-46-52.87-51.87-89.17A159.33,159.33,0,0,1,0,158.16c-.32-13.27,7.59-22,17.49-29.19,13.27-9.67,28.44-15.25,44-19.85,21.68-6.39,43.87-10.06,66.3-12.52a523.17,523.17,0,0,1,89.63-2.09c37.51,2.32,74.59,7.28,110,20.92,11.56,4.45,22.51,10,31.72,18.58,8.28,7.67,11.93,16.9,11.35,28.38-2.27,44.73-20.79,80.91-56,108.6a11.65,11.65,0,0,0-1,1c.55,1.13,1.09,2.34,1.71,3.52,9.67,18.54,19.41,37.05,29,55.63,5,9.66,2.14,20.51-6.56,25.89-9.86,6.11-21.76,2.61-27.51-8.27-8.84-16.73-17.53-33.54-26.29-50.31-1.37-2.63-2.78-5.23-4.24-8a241.43,241.43,0,0,1-75.16,15.69v4.25c0,15.84-.38,31.69.13,47.51.39,12-3.11,20.93-14.94,25.35Zm173.89-199a122.79,122.79,0,0,1-31.58,16.33c-34.09,12.2-69.55,17.06-105.44,19.26a513.19,513.19,0,0,1-121.45-6.6C74.94,209.55,54,204.45,34.4,195.21c-6.23-2.93-12.1-6.63-18.26-10a9.76,9.76,0,0,0,.11,1.47c9.35,39.15,31.66,68.2,67.63,86.51,19.53,9.94,40.48,15.16,62.06,18.06,6.48.87,13,1.28,20,1.94,0-4.25-.52-7.94.13-11.41.78-4.17,1.79-8.65,4-12.12,4.45-6.86,13.14-9.26,20.89-6.82,7.95,2.5,13.2,9.52,13.53,18.28.15,3.94,0,7.89,0,11.8,14.43.18,36.86-3.6,55.6-9.22C289,275,313.48,259.9,331.78,235.58A125.73,125.73,0,0,0,354.64,184.33Zm-168.47-78c-36.36.34-71.58,3-106.19,11.26-17.1,4.08-33.95,9.08-49.11,18.25a64.32,64.32,0,0,0-13.79,11.29c-5.76,6.27-5.67,13.43-.21,20a46.84,46.84,0,0,0,9.65,8.73c16.37,11,35,16.58,53.91,21.08,29.57,7,59.64,10,90,10.81,41.4,1.06,82.44-1.75,122.79-11.57,17.09-4.15,33.87-9.38,48.79-19.05a53.79,53.79,0,0,0,11.95-10.57c5.16-6.18,5.06-13-.25-19a60.6,60.6,0,0,0-12.4-10.63c-12.12-7.87-25.71-12.46-39.52-16.33C263.66,109.87,224.62,106.8,186.17,106.33ZM179,322.69h0v38.12c0,1.12,0,2.25.05,3.36.25,3.7,2.71,6.25,6.06,6.33a6.16,6.16,0,0,0,6.3-6.45c.11-9.59.05-19.19.06-28.78V284.82c0-1.12,0-2.25,0-3.36-.19-4-2.57-6.6-6.09-6.68s-6.29,2.61-6.32,6.8C179,295.28,179,309,179,322.69Zm112.63-37.48c.66,1.31,1.18,2.41,1.75,3.49l23.5,44.95c1.73,3.3,3.36,6.66,5.21,9.9s5.46,4.38,8.58,2.7c2.93-1.58,4-5,2.59-8.39-.23-.58-.55-1.12-.83-1.67q-14.26-27.26-28.53-54.52c-.43-.83-1-1.59-1.49-2.38Zm-223.75-6c-.47.76-.9,1.35-1.23,2Q52.21,308.79,37.8,336.42a12.94,12.94,0,0,0-1,2.4,6.13,6.13,0,0,0,6,7.89c3.4,0,5-2.19,6.39-4.87q14-27,28.17-53.9c.44-.85.74-1.77,1.18-2.85Z"/><path class="cls-1" d="M194.16,63.77c-.07,5.77-3.59,12.18-9.12,17.59a6.09,6.09,0,0,1-8.47.2c-2.51-2.18-3.39-5.84-1-8.34,7.41-7.88,6.7-15.08.47-23.59-6-8.17-4.71-19.94,1.6-27.95,5-6.36,10.28-12.51,15.53-18.67,2.9-3.41,6.58-3.9,9.5-1.54s3.13,6.37.22,9.92C198.27,17,193.59,22.48,189,28.05c-4.82,5.83-5,11.15-.54,17.32C192.59,51.15,194.19,55.68,194.16,63.77Z"/><path class="cls-1" d="M142.06,83.87c-1.88-1.44-4.32-2.4-5.06-4.11s-.93-5.26.23-6.48c7.74-8.1,6.09-15.33.32-24S132.73,30.59,139.09,22c5-6.7,10.54-12.94,16-19.27,2.73-3.19,6.4-3.55,9.25-1.24s3.16,6.33.46,9.62c-4.65,5.69-9.43,11.27-14.1,17-4.83,5.88-5,11.21-.55,17.32,8.53,11.81,7.49,25.31-2.87,35.46C146,82.06,144.16,82.67,142.06,83.87Z"/><path class="cls-1" d="M220.11,83.1c-6,0-9-5.23-6.6-9.57a21,21,0,0,1,2-2.67c5.27-6.6,5.42-11.41.53-18.22C208.45,42,208.84,30.21,217.22,20q6.89-8.37,13.89-16.64c3.12-3.69,6.7-4.34,9.74-1.95,3.25,2.57,3.38,6.26.2,10.15-4.43,5.39-8.94,10.71-13.42,16.06-5.14,6.16-5.35,11.46-.71,17.93C235.28,57.2,234,71.29,223.69,81A14.9,14.9,0,0,1,220.11,83.1Z"/><path class="cls-1" d="M134,199.08c-2.07-1.61-4.51-2.59-5.26-4.31s-.28-4.46.16-6.63c.22-1,1.57-1.86,2.45-2.74q33.33-33.35,66.68-66.68a21.8,21.8,0,0,1,2.74-2.53,6.37,6.37,0,0,1,8.81,9,17.52,17.52,0,0,1-2,2.22Q173.81,161.13,140,194.82C138.43,196.41,136.3,197.46,134,199.08Z"/><path class="cls-1" d="M172.45,199.05c-2.08-1.52-4.46-2.44-5.34-4.14s-.53-4.21-.2-6.28c.17-1,1.44-2,2.32-2.85q30.54-30.57,61.11-61.12a16.12,16.12,0,0,1,2.21-2c2.85-1.94,5.71-1.8,8.17.59a5.87,5.87,0,0,1,.87,8.12,18.69,18.69,0,0,1-2.47,2.8q-30.28,30.3-60.62,60.55C176.9,196.31,174.79,197.4,172.45,199.05Z"/><path class="cls-1" d="M173.35,121c-1.33,2.26-2,4.2-3.33,5.52q-31.38,31.56-62.92,63c-3.08,3.07-6.94,3.06-9.59.27s-2.48-6.29.52-9.3q31.44-31.52,62.92-63c2.27-2.28,5-3.3,7.76-1.7C170.53,116.78,171.68,119,173.35,121Z"/><path class="cls-1" d="M203.47,191.88c1.4-2.25,2.11-4,3.36-5.3q28-28.23,56.26-56.32c3.12-3.1,7-3.23,9.62-.62s2.71,6.5-.4,9.62q-28.22,28.34-56.54,56.56c-2.21,2.21-5,3.37-7.74,1.55C206.17,196.14,205,193.83,203.47,191.88Z"/><path class="cls-1" d="M128.7,127.28c-1.46,2.44-2.16,4.35-3.47,5.67q-24.9,25.11-50,50c-3.13,3.12-6.87,3.17-9.59.39-2.54-2.6-2.5-6.41.42-9.34q25.22-25.33,50.53-50.55c2-2,4.6-3.08,7.11-1.48C125.59,123.21,126.9,125.32,128.7,127.28Z"/><path class="cls-1" d="M256.35,191.69c-5.56-.12-8.55-4.64-6.76-8.71a10.5,10.5,0,0,1,2.14-3q24.66-24.74,49.39-49.41c3.74-3.73,8.42-3.62,10.82.16,1.87,2.95,1.39,5.77-1,8.15q-25.31,25.41-50.75,50.69C259,190.79,257.08,191.3,256.35,191.69Z"/><path class="cls-1" d="M44.4,173.42c-1.95-1.55-4.55-2.62-5.22-4.42-.74-2-.15-4.8.71-6.91.7-1.71,2.64-2.92,4-4.33,9-9,18-18,27-27,2.41-2.45,5.08-3.72,8.38-2.36,4.27,1.76,5,7.2,1.36,10.91-6.45,6.6-13,13.07-19.56,19.6-3.7,3.71-7.33,7.49-11.16,11.07C48.55,171.25,46.68,172,44.4,173.42Z"/><path class="cls-1" d="M299.56,186c-1.58-1.27-4.14-2.36-4.83-4.16s-.66-5.41.61-6.76c8.62-9.15,17.56-18,26.58-26.73,2.47-2.4,6.07-1.88,8.42.52,2.21,2.24,2.63,6.14.35,8.49-8.78,9-17.71,17.84-26.67,26.64C303.12,184.86,301.59,185.09,299.56,186Z"/></g></g></svg>