<svg xmlns="http://www.w3.org/2000/svg" viewBox="0 0 408.92 374.88"><defs><style>.cls-1{fill:#2d9045;}</style></defs><g id="Layer_2" data-name="Layer 2"><g id="Layer_1-2" data-name="Layer 1"><path class="cls-1" d="M408.92,219.77c-2.44,6.16-5.92,11.35-12.84,13a31.72,31.72,0,0,1-7.1.67c-13.57.06-27.14,0-40.72,0h-4.73c.17,1.32.29,2.3.41,3.28.75,5.68.06,11.25-4.3,15.15-14.89,13.27-29.7,26.66-45.2,39.19-12.37,10-27.42,14.8-42.63,19-16.05,4.43-32.07,8.88-48.92,7.8-8.21-.52-16.36-1.84-24.55-2.69-13.91-1.46-27.82-2.59-41.48,1.8a35.07,35.07,0,0,0-15.44,9.87c2.26,4.59,5.4,8.59,6,12.94.54,3.8-1.11,8.33-3,11.95-2.59,5-6.24,9.55-9.47,14.27-6.72,9.77-15.9,11.58-25.79,4.89q-33.37-22.54-66.65-45.26c-3-2-6-3.95-8.83-6.16-6.79-5.32-8.61-14-4.13-21.38A212.42,212.42,0,0,1,21.9,280c5.16-6.82,11.65-7.92,21.85-4.42,12.74-13.43,22.35-29.64,37.52-42.08H76.69c-18.9,0-37.8-.35-56.69.12-13.18.33-21-9.42-19.9-20,.3-2.89-.14-5.92.48-8.73,1.76-8,8.48-13.3,17-13.67,3.72-.15,7.45-.16,11.17,0,2.42.11,3.2-.79,3.37-3.16a165.59,165.59,0,0,1,14-55.72,172.35,172.35,0,0,1,60.29-72.78,167.32,167.32,0,0,1,70.37-28.2,9.15,9.15,0,0,0,1.54-.39,2.59,2.59,0,0,0,.65-.35c-1.17-4.32-2.54-8.45-3.36-12.68-1.17-6.08,1.27-11.07,6.71-13.57C187,2.15,192.33.27,197.44.09a89.36,89.36,0,0,1,23.62,1.85c11.35,2.69,14.8,10,11.42,21.18-.72,2.4-1.82,4.69-2.9,7.44,4.72,1,9.47,1.91,14.17,3,42.78,10.21,76.83,33.39,102.47,69,2.88,4,2.68,7.63-.39,9.85s-6.56,1.25-9.44-2.81A161,161,0,0,0,186.44,42.24c-41.93,4.93-76.67,23.45-104.16,55.18a154.42,154.42,0,0,0-37.6,86.71c-.22,2.11-.54,4.2-.9,7,5.82,0,11.33-.07,16.84,0,1.83,0,4.15-.1,5.35.91,1.62,1.36,3.48,3.93,3.2,5.66-.3,1.94-2.64,3.85-4.54,5.13-1.13.77-3.1.37-4.69.38-13.17,0-26.35,0-39.52,0-3.07,0-6.64-.22-7.65,3.52-1.13,4.2-1.84,8.7.92,12.63.71,1,2.41,1.52,3.75,1.9a13.75,13.75,0,0,0,3.58.09H387.89c3.18,0,7.3.63,8.13-3.2s.22-8.29-.3-12.4c-.12-.93-2.39-1.9-3.82-2.28a20.55,20.55,0,0,0-5.16-.27l-290.62,0a43.1,43.1,0,0,1-5.57-.23,5.29,5.29,0,0,1-5-5.27c-.25-3,1.1-5.24,4-6.05a21.14,21.14,0,0,1,5.51-.55q132.14,0,264.28,0h5.87c-.75-5.91-.83-11.66-2.3-17-3.45-12.64-7.56-25.09-11.41-37.61-.27-.89-.65-1.74-.91-2.63-1-3.46.11-6,3.37-7.51a5.66,5.66,0,0,1,7.64,3.09c2.16,4.7,4.17,9.48,5.89,14.36a162.65,162.65,0,0,1,9.32,43.47c.2,3.16,1.24,4.26,4.29,3.89,1.57-.19,3.2.08,4.78,0,10.85-.9,18.9,2.91,23,13.49ZM110.23,321.06c6.26-6.94,13.19-12.18,21.65-15.14,16.05-5.62,32.47-4.38,48.91-2.64,7.79.83,15.54,2.19,23.35,2.61,14.39.77,28.1-3.05,41.86-6.78,14.82-4,29.61-8.27,41.7-18.05,14.46-11.7,28.2-24.28,42.24-36.5A6.25,6.25,0,0,0,331.2,243c1.6-2.72,1.56-5.82-.69-7.66-1.45-1.18-4.38-1.12-6.49-.75-1.83.33-3.49,1.82-5.15,2.91-10.77,7.09-21.5,14.23-32.27,21.32a17.72,17.72,0,0,1-4.54,2.41c-20.06,5.94-39.83,13.49-61.39,11.29a6.89,6.89,0,0,0-1.2,0c-3.52.27-6.5-.69-7.52-4.39s1.14-6,4.25-7.63c5.07-2.64,10.22-5.14,15.1-8.08a12.45,12.45,0,0,0,5.06-5.27c2.62-6.45-3.16-12-10.71-10.46-15.59,3.21-31.13,6.66-46.75,9.71a24.15,24.15,0,0,1-10.12-.26c-12.86-3.2-25.59-7-38.44-10.21-4.72-1.2-9.67-2.38-14.46-2.19a47.81,47.81,0,0,0-32.24,13.88c-7.81,7.73-14.44,16.65-21.55,25.07-2.71,3.21-5.32,6.5-8.2,10Zm6.06,20.6c-1.11-1.36-2-3.1-3.37-4.06Q75.73,312.17,38.44,287c-3.59-2.43-5.46-2-8,1.66q-4.78,6.87-9.41,13.85c-2.71,4.08-2.41,5.85,1.61,8.59q36.89,25.13,73.84,50.17c3.7,2.5,5.68,2,8.3-1.72,3.18-4.58,6.3-9.21,9.39-13.85C114.91,344.57,115.41,343.34,116.29,341.66ZM242.56,259.8c21.84-5.22,42.67-10.53,58.85-26.14H246.23C251.05,243.13,249.86,251.63,242.56,259.8ZM204.54,29c1.46,0,2.92,0,4.38,0,6.89.05,11.53-4.09,12.4-11,.26-2.08-.08-3.57-2.36-4.29a44.87,44.87,0,0,0-28.89.12,4.26,4.26,0,0,0-2.31,3A11.82,11.82,0,0,0,199.36,29C201.08,29,202.81,29,204.54,29Z"/></g></g></svg>