<svg xmlns="http://www.w3.org/2000/svg" viewBox="0 0 374.67 374.54"><defs><style>.cls-1{fill:#009c41;}</style></defs><g id="Layer_2" data-name="Layer 2"><g id="Layer_1-2" data-name="Layer 1"><path class="cls-1" d="M0,175.59c.94-6.86,1.71-13.75,2.85-20.57A182.36,182.36,0,0,1,19,105.17c2-4.06,5.44-5.56,8.88-3.89,3.23,1.57,4.3,5.1,2.4,9.07C23,125.49,17.59,141.23,15,157.81c-7.74,49.52,2.75,94.85,33,134.87,28.91,38.2,67.52,61.38,115.05,67.54,61.67,8,113.95-11.69,155.63-57.89,24.9-27.6,38.72-60.54,42.5-97.49a171.91,171.91,0,0,0-14.57-89.47c-.9-2-1.95-3.93-2.7-6-1.25-3.4,0-6.69,2.92-8.09a6.21,6.21,0,0,1,8.35,3.07c1.89,3.67,3.58,7.46,5.16,11.29a183,183,0,0,1,13.31,89.8c-5,48.74-25.94,89.67-62.57,122.25a181.29,181.29,0,0,1-105.38,46c-87.84,8.42-168.12-44-196.23-127.57A177.53,177.53,0,0,1,.65,201.8,30.81,30.81,0,0,0,0,198.27Z"/><path class="cls-1" d="M199,0c6.73.93,13.48,1.71,20.18,2.82a183.34,183.34,0,0,1,49.89,16c4.22,2.05,5.83,5.3,4.34,8.75s-5.27,4.58-9.67,2.5a177.32,177.32,0,0,0-46.8-15A173.87,173.87,0,0,0,116.19,27.67c-2,.89-4,1.91-6,2.72-4,1.61-7.6.45-9-2.84s0-6.8,4-8.56c6.79-3,13.57-6.07,20.56-8.52A178.16,178.16,0,0,1,173.18.62,13.14,13.14,0,0,0,175.59,0Z"/><path class="cls-1" d="M297.82,85.76c.49.55.8.92,1.13,1.27,6.39,6.57,8.53,6.6,14.93.19L353.2,47.91A19.94,19.94,0,0,1,356.46,45a5.65,5.65,0,0,1,7.39.7A5.73,5.73,0,0,1,365,53.32a17.16,17.16,0,0,1-2.87,3.29c-13.52,13.55-27.1,27-40.56,40.65-6.08,6.15-12.88,8.9-21.5,6.09-1-.33-2.9.72-3.85,1.67q-25.57,25.38-51,50.91l-23.54,23.54c-5,5-4.94,10.69.13,15.82a84.6,84.6,0,0,1,6.73,7.2,18.54,18.54,0,0,1-26.06,26c-3.22-2.57-6-5.66-9-8.53-2.48-2.39-9.73-2.45-12.18-.08-2.81,2.71-5.44,5.62-8.43,8.12a18.6,18.6,0,0,1-26-26.46c2.53-3,5.43-5.59,8.14-8.4,2-2.11,2-9.59,0-11.67q-37.86-37.92-75.8-75.77a4.6,4.6,0,0,0-3.38-1.27C58.56,107,45.14,100.62,35.07,87,27,76.15,21.8,63.93,21.31,50.25,20.58,30.27,33.11,19,53,21.42c15.31,1.9,28.95,8,40,18.77,9.47,9.3,13.54,21,11.58,34.3a5.58,5.58,0,0,0,1.81,5.42q37.2,37,74.28,74.2c3.21,3.22,10.06,3.29,13.22.14q37.91-37.89,75.81-75.77c1.49-1.49,2.18-2.63,1.43-5-2.39-7.44-.19-13.9,5.25-19.34Q294,36.41,311.78,18.71c2.41-2.42,4.77-4.89,7.26-7.23,3.23-3,6.79-3.2,9.4-.57s2.4,6.34-.65,9.41q-19.73,19.84-39.56,39.59c-7.54,7.55-7.49,9.58.65,16.86.94-.89,1.91-1.78,2.84-2.71q21.86-21.84,43.71-43.69a19.93,19.93,0,0,1,3.28-2.9,5.67,5.67,0,0,1,7.39.76,5.69,5.69,0,0,1,1.07,7.63,18.28,18.28,0,0,1-2.88,3.29Q322.45,61,300.59,82.87C299.65,83.8,298.76,84.78,297.82,85.76Zm-264-34.85c.64,9.38,4.62,19.84,11.57,29.1,7.24,9.63,16.86,14.52,29,11.88C91.94,88.06,98.71,66.32,86.71,52c-10.4-12.39-24.39-17.9-40.3-18.23C37.9,33.62,33.51,39.27,33.83,50.91ZM280.26,86.32l-74.32,74.32,7.67,8.24c24.48-24.49,49.5-49.5,74.41-74.41ZM168.8,160.93,99.17,91.31l-8,7.36,69.69,69.68Zm-.18,26.52a18.68,18.68,0,1,0,18.44-18.83A18.76,18.76,0,0,0,168.62,187.45Zm45.78,18.26L205,213.9c3.05,2.25,4.94,7.24,10.13,5.75a7.68,7.68,0,0,0,4.51-4.52C221.12,209.94,216.16,208,214.4,205.71Zm-54-.34c-2.12,2.72-7.18,4.78-5.31,10.11a7.67,7.67,0,0,0,5.08,4.27c4.77.7,6.74-3.66,8.92-5.59Z"/><path class="cls-1" d="M324,204.19V169.63c-4.3.73-7.85,1.3-11.38,1.92-4.31.75-7.55-1-8.3-4.5-.83-3.86,1.28-6.71,5.81-7.66,3.56-.75,7.15-1.35,11.72-2.21-2.85-8.17-5.55-16-8.34-23.87-.73-2.06-1.84-4-2.6-6a6.11,6.11,0,0,1,3.07-8c3.07-1.45,6.28-.44,8.09,2.79a68.34,68.34,0,0,1,3.24,6.94,147.11,147.11,0,0,1,10.1,79.81c-5.61,37.5-23,68.57-51.79,93a144.47,144.47,0,0,1-78.25,34c-37.37,4.4-71.83-3.87-102.68-25.2C68.31,286.91,47.19,254,39.78,212.82a144.36,144.36,0,0,1,11.79-88.75A12,12,0,0,1,54.44,120a5.41,5.41,0,0,1,7.1-.09,5.84,5.84,0,0,1,2.17,7.42c-2.6,6.68-5.29,13.34-7.74,20.08-1.12,3.06-1.76,6.3-2.74,9.87,3.89.73,7.57,1.37,11.22,2.13,4.58,1,6.66,3.75,5.84,7.64-.74,3.56-3.93,5.32-8.25,4.55l-10.36-1.8c-2.17,6.54-2.24,27.25-.1,35.1L62.25,203c4.22-.73,7.45,1.18,8.09,4.78.68,3.8-1.37,6.54-5.68,7.42-3.68.76-7.37,1.41-11.55,2.2,1.8,5.87,3.29,11.49,5.27,16.94s4.39,10.53,6.82,16.29l6.53-3.75c7.09-4.11,10.39-4.19,12.76-.28s.55,7-6.35,11l-7.06,4.14L93.83,288.9c3-3.53,5.4-6.41,7.87-9.22,3-3.42,6.32-4,9.27-1.6s3.17,6,.22,9.66c-2.28,2.82-4.65,5.56-7.69,9.18l30.72,17.88c1.57-4.27,2.8-7.67,4.07-11.05,1.72-4.55,5-6.41,8.67-4.95,3.43,1.38,4.58,4.83,3,9.26-1.16,3.32-2.37,6.61-3.69,10.25a126.94,126.94,0,0,0,34.73,6c0-2.81,0-5.43,0-8.05a34.66,34.66,0,0,1,.3-5.1,5.92,5.92,0,0,1,6.08-5.18c3.24.28,5.65,2,5.86,5.42.24,4.11.05,8.25.05,12.82,12.24-.09,23.53-2.42,34.95-5.88-1.34-3.81-2.63-7.33-3.82-10.87-1.38-4.11,0-7.61,3.36-8.8s6.75.45,8.32,4.51c1.36,3.5,2.59,7.05,4.22,11.53l30.79-17.83c-2.94-3.5-5.29-6.22-7.56-9-3-3.72-3.07-7.18-.16-9.7s6.52-2,9.78,1.79c2.3,2.66,4.56,5.35,7.52,8.84,7.66-9.09,15.06-17.88,22.86-27.16-3.85-2.23-7-4-10.07-5.84-4-2.4-5.32-5.77-3.52-9.07,1.89-3.47,5.51-4.11,9.82-1.69,2.87,1.61,5.71,3.27,8.57,4.9a8.87,8.87,0,0,0,1.64.29c3.9-10.64,7.85-21.44,12-32.72-4.55-.87-8.24-1.51-11.89-2.3-4.53-1-6.64-3.86-5.79-7.69.77-3.52,3.91-5.2,8.32-4.45l10.08,1.66A7.74,7.74,0,0,0,324,204.19Z"/><path class="cls-1" d="M240.11,60.56c-1.38,3.79-2.57,7.23-3.9,10.62-1.59,4.06-4.9,5.84-8.28,4.6s-4.81-4.7-3.44-8.79c1.16-3.44,2.44-6.85,3.78-10.61a124.41,124.41,0,0,0-34.71-6.09c0,2.68,0,5.18,0,7.67a39.41,39.41,0,0,1-.22,5.1,6.13,6.13,0,0,1-6.15,5.58,6,6,0,0,1-5.93-5.82c-.27-4-.06-8-.06-12.41-12.12,0-23.31,2.5-34.87,5.81,1.27,3.58,2.49,6.94,3.66,10.32,1.55,4.46.42,7.91-3,9.28-3.68,1.47-7-.38-8.69-4.92-1.24-3.29-2.42-6.61-3.78-10.33-1.89.83-3.61,1.6-5.34,2.35-4.77,2.06-8.37,1.15-9.93-2.51s.08-6.68,4.69-8.83a150.53,150.53,0,0,1,127,.11c2.76,1.26,4.79,3,5,6.18a6.05,6.05,0,0,1-7.66,6,32.52,32.52,0,0,1-4.07-1.57C243,61.81,241.73,61.26,240.11,60.56Z"/></g></g></svg>