<svg xmlns="http://www.w3.org/2000/svg" viewBox="0 0 383.4 383.33"><defs><style>.cls-1{fill:#009c41;}</style></defs><g id="Layer_2" data-name="Layer 2"><g id="Layer_1-2" data-name="Layer 1"><path class="cls-1" d="M383.4,202.87c-1,7.38-1.62,14.83-3,22.13q-17.49,91-98.76,135.78A177.75,177.75,0,0,1,183.68,383C111.73,378.53,57.8,344.4,22.62,281.56A175.39,175.39,0,0,1,.36,183.65c4.44-72.08,38.71-126,101.7-161.25C125.42,9.32,150.85,2.44,177.6.61A19.57,19.57,0,0,0,180.49,0H203a26.85,26.85,0,0,0,3.26.65C225.75,2,244.75,6.06,262.72,13.77,327.37,41.5,366.9,89.82,380.44,159c1.38,7.06,2,14.26,3,21.39Zm-12.76-11.2C370.75,93.18,290.66,13,192,12.76S12.88,92.82,12.81,191.57c-.07,98.55,80,178.74,178.63,179S370.52,290.35,370.64,191.67Z"/><path class="cls-1" d="M219.94,249.06c1.07-24.54,1.76-41.49,2.6-58.43.12-2.43-.63-3.73-2.67-5.09-8.36-5.53-13.08-13.45-14.52-23.38A77.32,77.32,0,0,1,208,128.53c1.07-3.58,2.13-7.16,3.21-10.74,3.84-12.63,13.95-21.11,26.07-21.87,13.17-.83,24.49,5.9,29.44,18.59,4.66,12,8.14,24.33,8,37.42-.14,14.19-3.66,26.63-16.66,34.66-.83.51-1.26,2.32-1.21,3.49.81,20.32,1.73,40.62,2.63,60.93.6,13.46,1.39,26.91,1.74,40.37.3,10.88-6.77,19.05-17.75,21.25-9.76,1.95-20.39-3.63-23.9-13.1a28.44,28.44,0,0,1-1.42-10.6C218.71,273.1,219.56,257.28,219.94,249.06Zm13.27-11.4h0c-.82,17.57-1.69,35.13-2.41,52.69-.25,6.12,3.23,9.74,8.85,9.7s9-3.66,8.81-9.76c-.24-7.1-.67-14.2-1-21.3q-1.94-42.23-3.84-84.45a7.05,7.05,0,0,1,4.23-7.25,34,34,0,0,0,5.78-3.38c6.9-5.21,8-12.86,8.28-20.72.47-12.1-3.15-23.4-7.27-34.5-2.44-6.57-7.91-9.92-14.87-10s-12.57,3.18-15.06,9.72c-4.3,11.3-7.84,22.86-7.42,35.22.36,10.52,3.43,19.35,14.12,23.74,3.36,1.37,4.34,4.19,4.18,7.61Q234.41,211.32,233.21,237.66Z"/><path class="cls-1" d="M124.92,237.69c.86-17.69,1.65-35.38,2.62-53.06a6.81,6.81,0,0,0-2.36-5.86c-4.59-4.4-9.25-8.78-13.43-13.55a12.3,12.3,0,0,1-3-7.25c-.24-18.08-.12-36.17-.14-54.26,0-3.06.67-6.1,3.79-7,2-.57,5.06-.35,6.43.88,1.56,1.4,2.42,4.3,2.44,6.57.2,16.34.16,32.68,0,49a8,8,0,0,0,2.65,6.53c4.65,4.34,9,9,13.57,13.42a9.82,9.82,0,0,1,3,8.09q-2.82,54-5.53,108c-.21,4.08.71,7.73,4.69,9.81a8.36,8.36,0,0,0,9.46-.87c2.92-2.17,3.53-5.33,3.36-8.67q-2.7-54-5.49-108a10.51,10.51,0,0,1,3.34-8.7c4.59-4.41,9.15-8.85,13.45-13.54a9,9,0,0,0,2.27-5.43c.18-16.22.1-32.43.11-48.65a20.73,20.73,0,0,1,.19-4.1,6,6,0,0,1,5.68-5.1,5.73,5.73,0,0,1,6.31,4.21A15.92,15.92,0,0,1,179,105c0,17.33,0,34.67.08,52a11.7,11.7,0,0,1-3.9,9.26c-4.53,4.27-8.95,8.69-13.21,13.24a6.92,6.92,0,0,0-1.74,4.52q2.43,51.95,5.14,103.88c1,17.64-14,29.63-29.58,23.48-8.92-3.51-14-12.18-13.45-22.83Q123.63,263.1,124.92,237.69Z"/><path class="cls-1" d="M319.51,194.63c.09,29.89-11.88,60.52-36.38,86.2-3.25,3.42-7,4-9.85,1.51-3-2.66-3-6.43.53-10.16,11.56-12.19,20.67-25.91,26.11-41.86,11.51-33.77,8.48-66.26-9.38-97.19-3-5.27-6.91-10.06-10.44-15-2-2.82-2.62-5.7-.39-8.6,2.63-3.42,7.21-3.2,10.28.52a127.56,127.56,0,0,1,18.8,30.44C315.51,156,319.09,172.17,319.51,194.63Z"/><path class="cls-1" d="M64,189.91c.33-26.11,8.31-50.48,23.7-72.44,2.59-3.69,6.12-4.63,9.3-2.57s3.86,5.86,1.31,9.53c-8.18,11.79-14.63,24.42-17.89,38.41-9.11,39-1,74.08,25.11,104.73,1.62,1.89,3.42,3.65,4.94,5.62A6.29,6.29,0,0,1,110,282a6.06,6.06,0,0,1-9-.57c-5.05-5.68-10.24-11.33-14.51-17.57C71.34,241.81,64,217.32,64,189.91Z"/><path class="cls-1" d="M192.3,63.17c9.59,1.39,19.2,2.63,28.75,4.22,4.15.69,6.22,4,5.45,7.52-.8,3.72-4,5.72-8.33,4.77a117.41,117.41,0,0,0-50.75-.33c-5.09,1.11-10,2.82-15.06,4.3-4.71,1.39-8.07.2-9.34-3.39-1.37-3.89.5-7,5.26-8.71C162.47,66.42,177.13,64,192.3,63.17Z"/><path class="cls-1" d="M127.89,128c0-8.1,0-16.21,0-24.31,0-4.9,2.31-7.71,6.15-7.83s6.57,2.89,6.59,7.87q.09,24.12,0,48.23c0,4.84-2.52,7.59-6.43,7.57s-6.26-2.67-6.3-7.6C127.84,144,127.89,136,127.89,128Z"/><path class="cls-1" d="M159.69,128.05c0,8.35.09,16.7-.05,25-.06,3.91-2.44,6.26-5.89,6.44s-6.16-2.12-6.7-6.1a25,25,0,0,1-.1-3.36q0-18.89,0-37.77c0-3.48-.14-7,.18-10.45a6.29,6.29,0,0,1,6.46-6c3.37.12,5.76,2.61,6.07,6.37.09,1,.06,2,.06,3q0,11.4,0,22.81Z"/><path class="cls-1" d="M191.79,306.7c4.34-.24,8.57-.53,12.8-.72,4.59-.21,7.48,1.93,7.8,5.67s-2.21,6.77-6.71,6.92c-9.33.3-18.68.31-28,0-4.45-.15-6.86-3.34-6.45-7.11.4-3.6,3.16-5.64,7.59-5.45S187.53,306.46,191.79,306.7Z"/></g></g></svg>