<svg xmlns="http://www.w3.org/2000/svg" viewBox="0 0 382.11 352.02"><defs><style>.cls-1{fill:#2d9045;}</style></defs><g id="Layer_2" data-name="Layer 2"><g id="Layer_1-2" data-name="Layer 1"><path class="cls-1" d="M251.35,97.15c65.18-3.28,126.88,49.42,130.58,120.45A127.44,127.44,0,0,1,131,255.36c-9.56-1-19.07-1.38-28.31-3.17C70.93,246,43,232.35,24.39,205c-35.64-52.45-33.53-122.65,15-169.56C60.26,15.32,85.35,3.85,114.23.72a129.49,129.49,0,0,1,38,1.62c8.08,1.5,12.62,6.86,12.83,15a47.77,47.77,0,0,0,1,8.51c3.33,15.7,18.14,20.27,29.27,18.63.86-.13,1.73-.24,2.6-.34,7.07-.86,11.83,3.27,12,10.38.35,16.6,10.46,27.05,26.86,27.93,6.33.34,10.76,3.55,13,9.52C250.38,93.58,250.79,95.28,251.35,97.15ZM149.73,17.24c-29.66-5.54-57.25-.66-82.59,15.4A112,112,0,0,0,17.26,148C21,168,27.5,187.17,41.39,202.33c27.16,29.67,61.72,40.61,101.1,35.86,33.28-4,59.18-21,77.95-48.58C235.78,167.09,241.8,142,239,114.86c-.61-5.86-2-11.64-3-17.1-23.62-2.51-37.07-15.1-41.32-37.62C164.79,60.08,150.78,42.79,149.73,17.24ZM146.56,253.4c12.2,51.09,66.42,93.9,130.31,81.28,58.9-11.63,100.58-69.3,87.89-132.18-12.27-60.8-67.4-91.85-110.57-89.69C261.73,184.92,211.1,243.54,146.56,253.4Z"/><path class="cls-1" d="M135,56.42c0,14.59-11.78,26-26.59,26A26.19,26.19,0,1,1,135,56.42ZM108.7,45A11.58,11.58,0,0,0,97.59,56.3,11.22,11.22,0,1,0,120,56.08,11.57,11.57,0,0,0,108.7,45Z"/><path class="cls-1" d="M82.58,123.82c0,14.59-11.79,26-26.6,25.94a26.19,26.19,0,1,1,26.6-25.94Zm-15-.18a11.56,11.56,0,0,0-11.15-11.28,11.23,11.23,0,0,0-.12,22.45A11.59,11.59,0,0,0,67.62,123.64Z"/><path class="cls-1" d="M191,179.72a26.2,26.2,0,1,1,26.35-25.82A26.11,26.11,0,0,1,191,179.72Zm0-37.41a11.23,11.23,0,1,0,11.38,11.05A11.58,11.58,0,0,0,191,142.31Z"/><path class="cls-1" d="M116.18,224.64a26.19,26.19,0,1,1,26.29-25.87A26.08,26.08,0,0,1,116.18,224.64Zm11.34-26.3a11.22,11.22,0,1,0-11.1,11.34A11.57,11.57,0,0,0,127.52,198.34Z"/><path class="cls-1" d="M112.69,112.32a7.47,7.47,0,1,1,7.31-7.69A7.37,7.37,0,0,1,112.69,112.32Z"/><path class="cls-1" d="M157.44,119.68a7.47,7.47,0,1,1-7.7-7.31A7.33,7.33,0,0,1,157.44,119.68Z"/><path class="cls-1" d="M120,142.38a7.46,7.46,0,1,1-14.92-.35,7.46,7.46,0,0,1,14.92.35Z"/><path class="cls-1" d="M322.15,176.05a26.19,26.19,0,1,1-25.93-26.25A26,26,0,0,1,322.15,176.05Zm-26.3,11.17a11.23,11.23,0,1,0-11.09-11.35A11.59,11.59,0,0,0,295.85,187.22Z"/><path class="cls-1" d="M239.79,273.54A26.19,26.19,0,1,1,214,247.14,26,26,0,0,1,239.79,273.54Zm-14.95-.32a11.22,11.22,0,1,0-11.1,11.34A11.58,11.58,0,0,0,224.84,273.22Z"/><path class="cls-1" d="M322.15,273.49a26.19,26.19,0,1,1-25.83-26.35A26,26,0,0,1,322.15,273.49ZM296,262.11a11.23,11.23,0,1,0,11.17,11.27A11.58,11.58,0,0,0,296,262.11Z"/><path class="cls-1" d="M247.28,217.2a7.46,7.46,0,1,1-7.44,7.58A7.33,7.33,0,0,1,247.28,217.2Z"/><path class="cls-1" d="M337.12,224.74a7.47,7.47,0,1,1-7.47-7.54A7.32,7.32,0,0,1,337.12,224.74Z"/><path class="cls-1" d="M262.25,314.62a7.46,7.46,0,1,1-7.45-7.57A7.33,7.33,0,0,1,262.25,314.62Z"/></g></g></svg>