<svg xmlns="http://www.w3.org/2000/svg" viewBox="0 0 383.28 383.36"><defs><style>.cls-1{fill:#2d9045;}</style></defs><g id="Layer_2" data-name="Layer 2"><g id="Layer_1-2" data-name="Layer 1"><path class="cls-1" d="M0,179c1-6.76,1.75-13.55,2.9-20.28C8.6,125.33,22.47,95.66,44,69.55c2.14-2.6,4.39-5.11,6.65-7.61,3-3.36,6.5-3.88,9.08-1.44s2.28,5.73-.63,8.92a182.63,182.63,0,0,0-26.74,37.72,175.17,175.17,0,0,0-20.5,72.36C8.58,236.05,27.63,284,68.39,323.06c27.1,26,59.69,41.52,96.91,47C259.69,383.9,348.79,322,368.11,228.68c9.15-44.16,2.46-86.18-19.45-125.69-.78-1.42-1.66-2.78-2.51-4.16a4.22,4.22,0,0,0-.63-.58c-1.93,7.56-3.62,15.12-5.89,22.5A8.45,8.45,0,0,1,335,125.4c-1.35.5-4.15-.62-5.09-1.91a8.29,8.29,0,0,1-1-5.89c2.13-11.23,5.34-22.32,6.62-33.63,1.22-10.81.52-21.85.68-32.79,0-2.84-1.47-3.77-4.17-4.07-18.58-2-36.81.15-54.87,4.35-16.87,3.93-32.87,10-46.84,20.53-25.92,19.63-32.34,53.1-15.41,80.23,1,1.56,2.12,3,3.43,4.83l19.25-19.29c10.16-10.16,10.09-10.17,11.74-24.38.81-7,1.92-14.06,3-21.08a5.77,5.77,0,0,1,6.23-5.17,5.52,5.52,0,0,1,4.88,6.39c-.7,6.67-1.72,13.31-2.74,20.93,1.47-1.38,2.4-2.2,3.28-3.08q21.84-21.83,43.66-43.66c.8-.8,1.56-1.62,2.41-2.36,2.56-2.26,5.88-2.29,8.05-.12a5.59,5.59,0,0,1-.1,8c-5.21,5.38-10.54,10.63-15.84,15.91a234.63,234.63,0,0,0-16.27,17.33c4.59-.62,9.19-1.25,13.79-1.86,1.6-.22,3.2-.5,4.81-.61,3.69-.26,6.37,1.74,6.74,4.93s-2,5.76-5.6,6.3c-5.17.79-10.35,1.52-15.52,2.25-5.68.79-11.35,1.54-17,2.36a4.45,4.45,0,0,0-2.38.87c-7,7-14,14.07-21.66,21.79,6.78-.92,12.64-1.77,18.52-2.49,4.55-.56,7.42,1.3,7.77,4.85.32,3.31-2.2,5.78-6.39,6.36q-15.91,2.24-31.8,4.54a5.48,5.48,0,0,0-2.66,1.1c-2.81,2.44-5.5,5-8.51,7.79,8.07,6.5,16.42,10.46,25.75,12.07,26,4.49,50.22-7.3,65.07-31.46a34.08,34.08,0,0,1,2.4-3.78c2-2.45,4.64-3,7.33-1.32s3.65,4.2,2.12,7.08a77,77,0,0,1-5.68,9.21,6.59,6.59,0,0,0-1.15,5.81c8.7,41.78.3,79.81-26.41,113.14-22.59,28.18-52.25,44.5-88.24,48.81-29.55,3.53-57.22-2.38-83-17.24a13.75,13.75,0,0,1-3.34-2.35,5.08,5.08,0,0,1-.51-6.84c1.58-2.24,3.75-3.28,6.5-2.18a24.66,24.66,0,0,1,3,1.55A122.3,122.3,0,0,0,311.18,217a119,119,0,0,0,.63-47.18c-30.36,25-61.46,25.75-93.83,3.73-1.43,1.66-3.13,3.44-4.61,5.38-10.23,13.37-15.81,28.43-15.91,45.34-.11,18.84-.05,37.67-.06,56.51,0,1,0,2,0,3-.2,4-2.39,6.59-5.64,6.68s-5.84-2.62-5.87-6.79c-.08-11.48.12-23-.1-34.43-.27-14-7.32-23.89-19.59-30.74-11.38,14-25.59,22.83-43.77,24.34-18,1.5-33.33-5.1-47.26-15.93l-.91.61c3,7,5.8,14.19,9.23,21a113.89,113.89,0,0,0,22.92,30.75c.54.52,1.09,1,1.6,1.58,2.54,2.79,2.69,6,.4,8.33a5.47,5.47,0,0,1-8.3-.26c-6.33-7-12.94-13.91-18.41-21.58a127,127,0,0,1-22-54.59,17.94,17.94,0,0,0-2.7-6.79C45.34,188,36.82,168.81,32.67,147.76a58.72,58.72,0,0,1-.56-5.95c-.5-5.43,1.89-9.49,6.84-11.21,8.31-2.89,16.8-5.3,25.31-7.57,3.7-1,7.67-.91,11.42-1.77a7.78,7.78,0,0,0,4.26-2.94C99.55,89.47,126.08,70.48,160,62a129.76,129.76,0,0,1,60.36-.66,8.18,8.18,0,0,0,7.15-1.43c15.94-11,34-16.84,52.77-20.84L285.42,38c-1.05-.77-1.66-1.33-2.37-1.74A178.09,178.09,0,0,0,180.33,11.85C143,14.14,109.8,27,80.28,49.8c-1.64,1.26-4.09,2.41-6,2.16-1.65-.22-3.62-2.21-4.38-3.91-1.14-2.52.2-4.92,2.51-6.4C84,34.28,95.05,26,107.19,19.84,140,3.16,175.11-2.63,211.65,1.08a185.68,185.68,0,0,1,87.13,31.8,13.34,13.34,0,0,0,8.61,2.57c7.46-.3,14.95-.33,22.42-.06,12.93.47,17.67,5.17,18.15,18.14.29,8-.11,16,0,23.93a10.43,10.43,0,0,0,1.54,5.46c18.29,26.74,29.51,56.18,32.68,88.39,5,50.53-7.5,96.49-38.44,136.89-29.54,38.57-68.6,62.31-116.21,71.88-6.33,1.27-12.83,1.7-19.24,2.56a32.51,32.51,0,0,0-3.22.72H178.15c-4.42-.58-8.85-1.09-13.25-1.74-31.61-4.64-60.56-16-86.23-35.07C37.8,316.19,12.43,276,3,225.84,1.76,219,1,212.09,0,205.21Zm209.86-13.69c-22.06-32.25-21.34-63.43,3.64-93.71-53.29-10-101.26,18.71-120,48.41,1.38,0,2.62,0,3.85,0,13.61.49,27.08,1.83,39.81,7.21,25.4,10.73,43.81,34.89,38.6,67.25-.76,4.73-2.35,9.34-3.52,13.86L186,218.87C190.58,192.46,193.89,185,209.86,165.32ZM156,212.83c-4.48-3.09-8.45-5.47-14.24-4.27-7.4,1.54-15.05,1.94-22.6,2.71-4.2.43-6.68-1.41-7-4.88s1.95-5.89,6.2-6.38c4-.46,8-1,13-1.64-6.79-3.92-12.53-7.37-18.43-10.54a9.48,9.48,0,0,0-5.23-1c-8.79.93-17.54,2.16-26.32,3.15a5.72,5.72,0,0,1-6.45-4.91c-.39-3,1.34-5.43,4.6-6.24,1.32-.32,2.7-.4,4.06-.59l10.3-1.37c-1.87-1.17-2.88-1.85-3.93-2.46-9-5.18-17.94-10.28-26.8-15.59-1.58-1-3.52-2.66-3.71-4.22a8.14,8.14,0,0,1,2.06-5.83c1.91-2.06,4.51-1.3,6.86.06q22,12.74,44,25.4c1.08.63,2.2,1.19,4.14,2.24-2.1-4.9-3.78-8.76-5.4-12.65-1.76-4.2-.8-7.43,2.56-8.79s6,.06,7.81,4.23c3.46,8,6.76,16,10.37,24a10.91,10.91,0,0,0,4,4.51c7.45,4.52,15.06,8.78,22.62,13.11,1,.59,2.1,1.08,4.09,2.09,1-6.29,2.57-11.85,2.77-17.46.76-21.65-12.72-40.52-34.23-48.48-10-3.72-20.48-5.12-31.13-5.38-18.2-.44-36,1.44-53.27,7.72-2.62,1-3.76,2.25-3.15,5.22,5.3,25.77,15.82,49,33.88,68.37,13.38,14.33,29.91,21.38,49.8,17.65C138.89,228.44,148.31,222.22,156,212.83Z"/></g></g></svg>